<?xml version="1.0" encoding="UTF-8" standalone="no"?>
<!DOCTYPE svg PUBLIC "-//W3C//DTD SVG 1.1//EN"
 "http://www.w3.org/Graphics/SVG/1.1/DTD/svg11.dtd">
<!-- Generated by graphviz version 2.48.0 (20210717.1556)
 -->
<!-- Title: G Pages: 1 -->
<svg width="558pt" height="66pt"
 viewBox="0.00 0.00 558.20 66.20" xmlns="http://www.w3.org/2000/svg" xmlns:xlink="http://www.w3.org/1999/xlink">
<g id="graph0" class="graph" transform="scale(1 1) rotate(0) translate(21.6 44.6)">
<title>G</title>
<polygon fill="#111111" stroke="transparent" points="-21.6,21.6 -21.6,-44.6 536.6,-44.6 536.6,21.6 -21.6,21.6"/>
<!-- store/settings/data/SavageWorldsVanilla.ts -->
<g id="node1" class="node">
<title>store/settings/data/SavageWorldsVanilla.ts</title>
<path fill="none" stroke="#ff6c60" d="M273.33,-23C273.33,-23 7.67,-23 7.67,-23 3.83,-23 0,-19.17 0,-15.33 0,-15.33 0,-7.67 0,-7.67 0,-3.83 3.83,0 7.67,0 7.67,0 273.33,0 273.33,0 277.17,0 281,-3.83 281,-7.67 281,-7.67 281,-15.33 281,-15.33 281,-19.17 277.17,-23 273.33,-23"/>
<text text-anchor="middle" x="140.5" y="-7.8" font-family="Arial" font-size="14.00" fill="#ff6c60">store/settings/data/SavageWorldsVanilla.ts</text>
</g>
<!-- store/settings/settingModel.ts -->
<g id="node2" class="node">
<title>store/settings/settingModel.ts</title>
<path fill="none" stroke="#ff6c60" d="M507.33,-23C507.33,-23 324.67,-23 324.67,-23 320.83,-23 317,-19.17 317,-15.33 317,-15.33 317,-7.67 317,-7.67 317,-3.83 320.83,0 324.67,0 324.67,0 507.33,0 507.33,0 511.17,0 515,-3.83 515,-7.67 515,-7.67 515,-15.33 515,-15.33 515,-19.17 511.17,-23 507.33,-23"/>
<text text-anchor="middle" x="416" y="-7.8" font-family="Arial" font-size="14.00" fill="#ff6c60">store/settings/settingModel.ts</text>
</g>
<!-- store/settings/data/SavageWorldsVanilla.ts&#45;&gt;store/settings/settingModel.ts -->
<g id="edge1" class="edge">
<title>store/settings/data/SavageWorldsVanilla.ts&#45;&gt;store/settings/settingModel.ts</title>
<path fill="none" stroke="#757575" d="M281.05,-4.75C289.67,-4.76 298.27,-4.8 306.71,-4.88"/>
<polygon fill="#757575" stroke="#757575" points="306.89,-8.38 316.93,-5 306.97,-1.38 306.89,-8.38"/>
</g>
<!-- store/settings/settingModel.ts&#45;&gt;store/settings/data/SavageWorldsVanilla.ts -->
<g id="edge2" class="edge">
<title>store/settings/settingModel.ts&#45;&gt;store/settings/data/SavageWorldsVanilla.ts</title>
<path fill="none" stroke="#757575" d="M316.93,-18C308.54,-18.11 299.94,-18.19 291.26,-18.22"/>
<polygon fill="#757575" stroke="#757575" points="291.05,-14.72 281.05,-18.25 291.06,-21.72 291.05,-14.72"/>
</g>
</g>
</svg>
